<svg width="164" height="163" viewBox="0 0 164 163" fill="none" xmlns="http://www.w3.org/2000/svg">
<path d="M73.8718 75.4795C73.8718 73.8265 72.2923 72.022 68.9685 72.022C64.7736 72.022 62.5815 75.2233 62.5815 78.0303C62.5815 78.0392 64.3392 78.6852 68.9484 78.6852C72.123 78.6852 73.8718 77.4355 73.8718 75.4795Z" fill="#FFD00C"/>
<path d="M37.3012 72.0127C33.9863 72.0127 31.3486 74.6014 31.3486 79.5894C31.3486 84.2655 33.9284 86.3974 37.3012 86.3974C40.3599 86.3974 42.9507 84.5773 42.9507 79.204C42.9507 73.9776 40.5626 72.0127 37.3012 72.0127Z" fill="#FFD00C"/>
<path d="M81.7803 0C36.7821 0 0.302734 36.4798 0.302734 81.4787C0.302734 126.477 36.7821 162.957 81.7803 162.957C126.779 162.957 163.258 126.477 163.258 81.4787C163.258 36.4798 126.779 0 81.7803 0ZM37.1118 107.802C32.6897 107.802 27.4211 105.626 25.1332 102.658C25.1176 102.638 25.9641 98.8598 29.0251 98.8598C30.2325 98.8598 31.1325 99.5281 32.3399 100.107C33.7011 100.76 35.167 101.297 37.1474 101.297C41.2665 101.297 42.8527 98.5768 42.8527 94.4955V90.9645C42.2712 91.4725 39.9054 93.2079 35.8241 93.2079C27.9647 93.2079 23.625 86.5803 23.625 79.4759C23.625 71.8057 28.3411 65.5033 37.3368 65.5033C46.5374 65.5033 50.5896 71.7656 50.5896 80.9195C50.5896 82.5591 50.5896 92.6821 50.5896 92.6821C50.5919 102.734 45.8044 107.802 37.1118 107.802ZM68.9864 89.4051C70.7329 89.4051 72.0918 88.9929 73.2369 88.5162C74.333 88.0617 75.3265 87.5427 76.6654 87.5427C79.2162 87.5427 80.154 91.1272 80.1451 91.1383C78.7795 93.0698 73.3884 95.8567 68.4762 95.8567C59.7479 95.8567 54.7021 89.688 54.7021 81.345C54.7021 70.4044 61.8442 65.5033 68.6745 65.5033C75.8567 65.5033 80.7778 69.442 80.7778 75.4503C80.7778 79.6742 78.4498 83.7532 68.8015 83.7532C64.3081 83.7532 62.3477 83.1829 62.3477 83.1829C62.3477 88.4315 66.5492 89.4051 68.9864 89.4051ZM96.4344 95.899C88.9938 95.899 85.1086 90.5568 85.1086 82.4032L85.1709 62.4624C85.1709 59.9272 85.8459 58.1115 87.1982 57.0132C88.5504 55.9149 90.5153 55.3647 93.0928 55.3647C93.0505 55.661 93.0081 56.062 92.9658 56.5699C92.9235 57.0355 92.8923 57.6571 92.87 58.439C92.8477 59.221 92.8366 60.2457 92.8366 61.5111L92.899 65.5033H101.391C101.391 67.4036 100.863 68.9251 99.8072 70.0658C98.7513 71.2064 97.252 71.7767 95.3094 71.7767H92.9012L92.8388 80.7747C92.8388 82.548 93.0594 84.2389 93.3757 85.4441C93.6921 86.6471 95.3963 89.4496 98.7223 89.4496C100.687 89.4496 101.877 89.1667 102.534 88.9952C102.636 89.3382 102.777 89.884 102.777 90.9422C102.779 93.9297 100.106 95.899 96.4344 95.899ZM107.368 57.4922C107.758 56.757 108.299 56.1823 108.992 55.7701C109.683 55.3602 110.398 55.153 111.135 55.153C111.786 55.153 112.414 55.3246 113.02 55.6721C113.713 56.0196 114.232 56.5164 114.579 57.1669C114.927 57.8174 115.098 58.5103 115.098 59.2455C115.098 60.0252 114.905 60.7626 114.515 61.4554C113.606 62.9725 112.347 63.73 110.745 63.73C110.053 63.73 109.402 63.5785 108.796 63.2755C108.146 62.8856 107.649 62.3777 107.301 61.7472C106.956 61.1212 106.782 60.4373 106.782 59.7021C106.782 58.8779 106.976 58.1427 107.368 57.4922ZM114.464 95.8589C110.222 96.0283 106.86 93.1366 106.86 87.8946L106.925 73.2381C106.925 70.7029 107.6 68.8873 108.952 67.789C110.304 66.6907 112.289 66.1404 114.909 66.1404C114.867 66.4367 114.824 66.8377 114.782 67.3456C114.74 67.8112 114.709 68.4328 114.689 69.2148C114.666 69.9967 114.657 71.0215 114.657 72.2891V86.6783C114.657 88.6432 115.713 89.8373 117.355 89.8373C118.206 89.8373 118.641 89.7236 119.264 89.5543C119.264 89.5543 119.454 90.49 119.454 91.6663C119.451 94.4777 117.135 95.752 114.464 95.8589ZM135.284 72.523C130.882 72.8928 130.481 76.0941 130.481 78.587V89.14C130.481 90.4076 130.49 91.4324 130.514 92.2143C130.535 92.9963 130.566 93.62 130.61 94.0834C130.65 94.5891 130.695 95.3176 130.737 95.5716C128.16 95.5716 126.222 95.5136 124.555 94.2483C123.025 93.0854 122.691 90.7262 122.691 88.1909V79.9526C122.691 77.1234 123.103 74.8109 123.925 73.0153C124.749 71.2197 125.814 69.814 127.126 68.8004C128.434 67.7867 129.904 67.1006 131.53 66.7419C133.157 66.3832 134.772 66.2028 136.378 66.2028H139.483C139.802 66.8934 139.936 68.0652 139.936 68.689C139.933 71.3712 137.759 72.3158 135.284 72.523Z" fill="#FFD00C"/>
<path d="M80.7803 75.4524C80.7803 69.4441 75.8593 65.5054 68.677 65.5054C61.8445 65.5054 54.7046 70.4087 54.7046 81.3471C54.7046 89.6901 59.7482 95.8588 68.4787 95.8588C73.3909 95.8588 78.7821 93.0741 80.1477 91.1404C80.1566 91.1292 79.2187 87.5448 76.6679 87.5448C75.3268 87.5448 74.3355 88.0616 73.2394 88.5183C72.0944 88.9928 70.7354 89.4072 68.9889 89.4072C66.5517 89.4072 62.3502 88.4336 62.3502 83.1872C62.3502 83.1872 64.3129 83.7575 68.804 83.7575C78.4524 83.7553 80.7803 79.674 80.7803 75.4524ZM68.9688 72.0216C72.2949 72.0216 73.8721 73.8261 73.8721 75.4791C73.8721 77.4351 72.1233 78.6849 68.9488 78.6849C64.3396 78.6849 62.5819 78.0388 62.5819 78.0299C62.5819 75.2252 64.774 72.0216 68.9688 72.0216Z" fill="#5D3EBC"/>
<path d="M98.7246 89.4516C95.3986 89.4516 93.6944 86.6491 93.378 85.4461C93.0617 84.2409 92.8411 82.55 92.8411 80.7767L92.9035 71.7787H95.3117C97.2543 71.7787 98.7558 71.2084 99.8095 70.0678C100.865 68.9272 101.393 67.4056 101.393 65.5053H92.9013L92.8389 61.5131C92.8389 60.2455 92.85 59.223 92.8723 58.441C92.8924 57.6591 92.9236 57.0353 92.9681 56.5719C93.0082 56.0662 93.0528 55.6652 93.0951 55.3667C90.5176 55.3667 88.5527 55.917 87.2005 57.0153C85.8482 58.1135 85.1732 59.9292 85.1732 62.4644L85.1108 82.4052C85.1108 90.5588 88.996 95.9011 96.4367 95.9011C100.106 95.9011 102.781 93.9317 102.781 90.9465C102.781 89.8883 102.641 89.3425 102.539 88.9994C101.881 89.1687 100.689 89.4516 98.7246 89.4516Z" fill="#5D3EBC"/>
<path d="M108.797 63.2753C109.403 63.5783 110.053 63.7298 110.746 63.7298C112.348 63.7298 113.604 62.9723 114.515 61.4552C114.905 60.7624 115.099 60.025 115.099 59.2453C115.099 58.5101 114.925 57.8172 114.58 57.1667C114.232 56.5162 113.713 56.0194 113.02 55.6719C112.414 55.3266 111.786 55.1528 111.136 55.1528C110.398 55.1528 109.683 55.3578 108.993 55.7699C108.298 56.1821 107.758 56.7568 107.369 57.492C106.979 58.1425 106.783 58.8799 106.783 59.7019C106.783 60.4371 106.956 61.121 107.302 61.747C107.649 62.3753 108.146 62.8832 108.797 63.2753Z" fill="#5D3EBC"/>
<path d="M117.355 89.835C115.711 89.835 114.657 88.6387 114.657 86.6761V72.2868C114.657 71.0192 114.666 69.9967 114.689 69.2125C114.709 68.4306 114.74 67.8068 114.782 67.3434C114.825 66.8377 114.867 66.4367 114.909 66.1382C112.289 66.1382 110.304 66.6884 108.952 67.7867C107.6 68.885 106.925 70.7007 106.925 73.2359L106.86 87.8924C106.86 93.1344 110.222 96.026 114.464 95.8567C117.135 95.7498 119.452 94.4777 119.452 91.6618C119.452 90.4855 119.262 89.5499 119.262 89.5499C118.641 89.7214 118.204 89.835 117.355 89.835Z" fill="#5D3EBC"/>
<path d="M136.376 66.2024C134.77 66.2024 133.154 66.3829 131.528 66.7415C129.902 67.1002 128.434 67.7864 127.124 68.8C125.814 69.8136 124.747 71.2194 123.923 73.015C123.101 74.8105 122.688 77.123 122.688 79.9523V88.1906C122.688 90.7258 123.023 93.0872 124.553 94.2479C126.222 95.5133 128.16 95.5712 130.735 95.5712C130.693 95.3172 130.65 94.591 130.608 94.083C130.566 93.6174 130.535 92.9959 130.512 92.2139C130.49 91.432 130.479 90.4072 130.479 89.1396V78.5866C130.479 76.0915 130.88 72.8924 135.282 72.5226C137.757 72.3154 139.929 71.3709 139.929 68.6864C139.929 68.0626 139.798 66.8908 139.477 66.2002H136.376V66.2024Z" fill="#5D3EBC"/>
<path d="M37.3392 65.5054C28.3458 65.5054 23.6274 71.8055 23.6274 79.478C23.6274 86.5824 27.9671 93.21 35.8266 93.21C39.9078 93.21 42.2737 91.4746 42.8551 90.9666V94.4976C42.8551 98.5789 41.269 101.299 37.1499 101.299C35.1672 101.299 33.7013 100.76 32.3424 100.109C31.1349 99.5302 30.2349 98.8619 29.0275 98.8619C25.9666 98.8619 25.12 102.64 25.1356 102.66C27.4235 105.628 32.6921 107.804 37.1142 107.804C45.8047 107.804 50.5943 102.736 50.5943 92.6842C50.5943 92.6842 50.5943 82.5612 50.5943 80.9216C50.5921 71.7676 46.5398 65.5054 37.3392 65.5054ZM37.3013 86.3975C33.9285 86.3975 31.3488 84.2655 31.3488 79.5894C31.3488 74.6014 33.9865 72.0127 37.3013 72.0127C40.5628 72.0127 42.9509 73.9776 42.9509 79.204C42.9509 84.5774 40.36 86.3975 37.3013 86.3975Z" fill="#5D3EBC"/>
</svg>
